<svg width="501" height="501" viewBox="0 0 501 501" fill="none" xmlns="http://www.w3.org/2000/svg">
<g filter="url(#filter0_dii_5_206)">
<rect x="32" y="28" width="437" height="437" rx="218.5" fill="url(#paint0_linear_5_206)"/>
</g>
<g filter="url(#filter1_di_5_206)">
<path d="M155.111 389C147.656 389 141.273 386.333 135.964 380.999C130.655 375.665 128 369.252 128 361.762V198.333C128 190.843 130.655 184.431 135.964 179.096C141.273 173.762 147.656 171.095 155.111 171.095H182.222C182.222 152.256 188.831 136.196 202.047 122.918C215.264 109.639 231.248 103 250 103C268.752 103 284.736 109.639 297.953 122.918C311.169 136.196 317.778 152.256 317.778 171.095H344.889C352.344 171.095 358.727 173.762 364.036 179.096C369.345 184.431 372 190.843 372 198.333V361.762C372 369.252 369.345 375.665 364.036 380.999C358.727 386.333 352.344 389 344.889 389H155.111ZM209.333 171.095H290.667C290.667 159.746 286.713 150.099 278.806 142.155C270.898 134.21 261.296 130.238 250 130.238C238.704 130.238 229.102 134.21 221.194 142.155C213.287 150.099 209.333 159.746 209.333 171.095ZM249.661 280.048C266.38 280.048 281.517 274.487 295.072 263.364C308.628 252.242 315.293 239.758 315.067 225.912C315.067 222.053 313.824 218.762 311.339 216.038C308.854 213.314 305.691 211.952 301.85 211.952C298.687 211.952 295.863 212.974 293.378 215.017C290.893 217.06 289.085 220.124 287.956 224.21C285.47 232.835 280.613 239.758 273.383 244.979C266.154 250.199 258.246 252.81 249.661 252.81C241.076 252.81 233.112 250.199 225.769 244.979C218.427 239.758 213.626 232.835 211.367 224.21C210.237 219.897 208.543 216.776 206.283 214.846C204.024 212.917 201.313 211.952 198.15 211.952C194.309 211.952 191.09 213.314 188.492 216.038C185.894 218.762 184.594 222.053 184.594 225.912C184.594 239.758 191.259 252.242 204.589 263.364C217.919 274.487 232.943 280.048 249.661 280.048Z" fill="#FEFEFE"/>
</g>
<defs>
<filter id="filter0_dii_5_206" x="0.799999" y="0.799999" width="499.4" height="499.4" filterUnits="userSpaceOnUse" color-interpolation-filters="sRGB">
<feFlood flood-opacity="0" result="BackgroundImageFix"/>
<feColorMatrix in="SourceAlpha" type="matrix" values="0 0 0 0 0 0 0 0 0 0 0 0 0 0 0 0 0 0 127 0" result="hardAlpha"/>
<feMorphology radius="11" operator="dilate" in="SourceAlpha" result="effect1_dropShadow_5_206"/>
<feOffset dy="4"/>
<feGaussianBlur stdDeviation="10.1"/>
<feComposite in2="hardAlpha" operator="out"/>
<feColorMatrix type="matrix" values="0 0 0 0 0 0 0 0 0 0 0 0 0 0 0 0 0 0 0.25 0"/>
<feBlend mode="normal" in2="BackgroundImageFix" result="effect1_dropShadow_5_206"/>
<feBlend mode="normal" in="SourceGraphic" in2="effect1_dropShadow_5_206" result="shape"/>
<feColorMatrix in="SourceAlpha" type="matrix" values="0 0 0 0 0 0 0 0 0 0 0 0 0 0 0 0 0 0 127 0" result="hardAlpha"/>
<feOffset dx="4" dy="4"/>
<feGaussianBlur stdDeviation="19.85"/>
<feComposite in2="hardAlpha" operator="arithmetic" k2="-1" k3="1"/>
<feColorMatrix type="matrix" values="0 0 0 0 0 0 0 0 0 0 0 0 0 0 0 0 0 0 0.25 0"/>
<feBlend mode="normal" in2="shape" result="effect2_innerShadow_5_206"/>
<feColorMatrix in="SourceAlpha" type="matrix" values="0 0 0 0 0 0 0 0 0 0 0 0 0 0 0 0 0 0 127 0" result="hardAlpha"/>
<feMorphology radius="11" operator="erode" in="SourceAlpha" result="effect3_innerShadow_5_206"/>
<feOffset dy="4"/>
<feGaussianBlur stdDeviation="19.85"/>
<feComposite in2="hardAlpha" operator="arithmetic" k2="-1" k3="1"/>
<feColorMatrix type="matrix" values="0 0 0 0 0 0 0 0 0 0 0 0 0 0 0 0 0 0 0.25 0"/>
<feBlend mode="normal" in2="effect2_innerShadow_5_206" result="effect3_innerShadow_5_206"/>
</filter>
<filter id="filter1_di_5_206" x="49.6" y="24.6" width="400.8" height="442.8" filterUnits="userSpaceOnUse" color-interpolation-filters="sRGB">
<feFlood flood-opacity="0" result="BackgroundImageFix"/>
<feColorMatrix in="SourceAlpha" type="matrix" values="0 0 0 0 0 0 0 0 0 0 0 0 0 0 0 0 0 0 127 0" result="hardAlpha"/>
<feOffset/>
<feGaussianBlur stdDeviation="39.2"/>
<feComposite in2="hardAlpha" operator="out"/>
<feColorMatrix type="matrix" values="0 0 0 0 0 0 0 0 0 0 0 0 0 0 0 0 0 0 0.25 0"/>
<feBlend mode="normal" in2="BackgroundImageFix" result="effect1_dropShadow_5_206"/>
<feBlend mode="normal" in="SourceGraphic" in2="effect1_dropShadow_5_206" result="shape"/>
<feColorMatrix in="SourceAlpha" type="matrix" values="0 0 0 0 0 0 0 0 0 0 0 0 0 0 0 0 0 0 127 0" result="hardAlpha"/>
<feOffset dx="4" dy="4"/>
<feGaussianBlur stdDeviation="26.5"/>
<feComposite in2="hardAlpha" operator="arithmetic" k2="-1" k3="1"/>
<feColorMatrix type="matrix" values="0 0 0 0 0 0 0 0 0 0 0 0 0 0 0 0 0 0 0.25 0"/>
<feBlend mode="normal" in2="shape" result="effect2_innerShadow_5_206"/>
</filter>
<linearGradient id="paint0_linear_5_206" x1="250.5" y1="28" x2="250.5" y2="465" gradientUnits="userSpaceOnUse">
<stop stop-color="#FF8A00"/>
<stop offset="1" stop-color="#FFE600"/>
</linearGradient>
</defs>
</svg>
