<svg width="501" height="501" viewBox="0 0 501 501" fill="none" xmlns="http://www.w3.org/2000/svg">
<g filter="url(#filter0_dii_5_212)">
<rect x="32" y="28" width="437" height="437" rx="218.5" fill="url(#paint0_radial_5_212)"/>
</g>
<g filter="url(#filter1_di_5_212)">
<path fill-rule="evenodd" clip-rule="evenodd" d="M250.5 102C170.695 102 106 166.695 106 246.5C106 326.305 170.695 391 250.5 391C330.305 391 395 326.305 395 246.5C395 166.695 330.305 102 250.5 102ZM166.093 164.182C162.105 164.182 159.227 167.999 160.324 171.832L174.579 221.651C175.315 224.225 177.669 226 180.347 226H184.056C186.725 226 189.073 224.237 189.818 221.674L200.236 185.815C200.275 185.677 200.401 185.583 200.544 185.583V185.583C200.688 185.583 200.813 185.677 200.853 185.814L211.299 221.678C212.045 224.239 214.392 226 217.06 226H220.772C223.45 226 225.804 224.225 226.54 221.651L240.795 171.832C241.892 167.999 239.014 164.182 235.026 164.182H233.448C230.668 164.182 228.253 166.09 227.61 168.794L218.538 206.958C218.5 207.115 218.36 207.225 218.199 207.225V207.225C218.041 207.225 217.903 207.118 217.863 206.965L207.844 168.663C207.154 166.023 204.768 164.182 202.039 164.182H199.074C196.348 164.182 193.964 166.02 193.271 168.657L183.222 206.889C183.184 207.034 183.054 207.135 182.905 207.135V207.135C182.752 207.135 182.62 207.03 182.585 206.882L173.51 168.791C172.867 166.089 170.452 164.182 167.674 164.182H166.093ZM253.571 224.008C257.012 225.94 261.117 226.906 265.887 226.906C269.71 226.906 273.081 226.322 275.998 225.155C278.936 223.968 281.331 222.317 283.182 220.205C283.521 219.818 283.839 219.42 284.137 219.01C286.281 216.053 283.634 212.504 279.989 212.263L278.558 212.169C276.445 212.029 274.604 213.432 273.071 214.892V214.892C272.225 215.697 271.209 216.301 270.022 216.703C268.835 217.106 267.527 217.307 266.098 217.307C263.945 217.307 262.083 216.854 260.514 215.949C258.944 215.043 257.727 213.755 256.861 212.085C256.016 210.415 255.594 208.433 255.594 206.138V206.138C255.594 206.122 255.607 206.108 255.624 206.108H283.635C285.586 206.108 287.167 204.527 287.167 202.577V202.577C287.167 198.633 286.613 195.192 285.507 192.254C284.4 189.295 282.85 186.84 280.858 184.888C278.886 182.937 276.572 181.478 273.916 180.512C271.28 179.526 268.432 179.033 265.373 179.033C260.826 179.033 256.861 180.039 253.481 182.051C250.12 184.063 247.514 186.871 245.663 190.473C243.812 194.075 242.886 198.26 242.886 203.029C242.886 207.919 243.812 212.155 245.663 215.737C247.514 219.299 250.15 222.056 253.571 224.008ZM260.386 198.14C257.783 198.14 255.607 195.846 256.892 193.582V193.582C257.737 192.072 258.904 190.875 260.393 189.99C261.902 189.084 263.633 188.631 265.585 188.631C267.456 188.631 269.096 189.044 270.505 189.869C271.934 190.674 273.05 191.791 273.855 193.219V193.219C275.244 195.685 272.769 198.14 269.94 198.14H260.386ZM301.8 164.182C298.486 164.182 295.8 166.868 295.8 170.182V220C295.8 223.314 298.486 226 301.8 226H304.764C306.815 226 308.477 224.338 308.477 222.287V218.923C308.477 218.731 308.633 218.575 308.826 218.575V218.575C308.963 218.575 309.087 218.655 309.145 218.778C309.724 219.997 310.538 221.207 311.586 222.408C312.693 223.656 314.112 224.692 315.842 225.517C317.593 226.342 319.716 226.755 322.211 226.755C325.733 226.755 328.912 225.849 331.75 224.038C334.607 222.207 336.861 219.52 338.511 215.979C340.181 212.417 341.016 208.05 341.016 202.879C341.016 197.566 340.161 193.149 338.451 189.627C336.74 186.086 334.456 183.44 331.599 181.689C328.741 179.918 325.622 179.033 322.241 179.033C319.646 179.033 317.472 179.475 315.721 180.361C313.991 181.226 312.582 182.313 311.496 183.621C310.469 184.861 309.675 186.082 309.115 187.284C309.075 187.369 308.99 187.424 308.897 187.424V187.424C308.765 187.424 308.658 187.317 308.658 187.186V170.182C308.658 166.868 305.972 164.182 302.658 164.182H301.8ZM309.534 210.032C308.769 207.98 308.387 205.575 308.387 202.818C308.387 200.061 308.769 197.667 309.534 195.634C310.298 193.602 311.395 192.032 312.824 190.925C314.273 189.819 316.043 189.265 318.136 189.265C320.249 189.265 322.03 189.839 323.479 190.986C324.928 192.133 326.025 193.723 326.769 195.755C327.514 197.787 327.886 200.142 327.886 202.818C327.886 205.515 327.504 207.899 326.739 209.972C325.994 212.025 324.898 213.634 323.449 214.801C322 215.949 320.229 216.522 318.136 216.522C316.064 216.522 314.303 215.959 312.854 214.832C311.405 213.685 310.298 212.085 309.534 210.032ZM150.951 323C150.951 326.314 153.637 329 156.951 329H172.865C179.143 329 184.536 327.762 189.044 325.287C193.572 322.812 197.043 319.26 199.458 314.632C201.893 310.004 203.11 304.47 203.11 298.031C203.11 291.611 201.893 286.098 199.458 281.489C197.043 276.881 193.592 273.35 189.104 270.895C184.617 268.419 179.264 267.182 173.046 267.182H156.951C153.637 267.182 150.951 269.868 150.951 273.182V323ZM172.322 317.801H170.021C166.707 317.801 164.021 315.115 164.021 311.801V284.38C164.021 281.067 166.707 278.38 170.021 278.38H172.352C176.216 278.38 179.465 279.065 182.102 280.433C184.738 281.801 186.72 283.934 188.048 286.832C189.396 289.73 190.07 293.463 190.07 298.031C190.07 302.639 189.396 306.402 188.048 309.32C186.72 312.217 184.728 314.36 182.071 315.749C179.435 317.117 176.185 317.801 172.322 317.801ZM221.364 327.008C224.805 328.94 228.91 329.906 233.68 329.906C237.503 329.906 240.874 329.322 243.791 328.155C246.729 326.968 249.124 325.317 250.975 323.205C251.314 322.818 251.632 322.42 251.93 322.01C254.074 319.053 251.427 315.504 247.782 315.263L246.351 315.169C244.238 315.029 242.397 316.432 240.864 317.892V317.892C240.018 318.697 239.002 319.301 237.815 319.703C236.628 320.106 235.32 320.307 233.891 320.307C231.738 320.307 229.876 319.854 228.307 318.949C226.737 318.043 225.52 316.755 224.654 315.085C223.809 313.415 223.387 311.433 223.387 309.138V309.138C223.387 309.122 223.4 309.108 223.417 309.108H251.428C253.379 309.108 254.96 307.527 254.96 305.577V305.577C254.96 301.633 254.406 298.192 253.3 295.254C252.193 292.295 250.643 289.84 248.651 287.888C246.679 285.937 244.365 284.478 241.709 283.512C239.073 282.526 236.225 282.033 233.166 282.033C228.619 282.033 224.654 283.039 221.274 285.051C217.913 287.063 215.307 289.871 213.456 293.473C211.605 297.075 210.679 301.26 210.679 306.029C210.679 310.919 211.605 315.155 213.456 318.737C215.307 322.299 217.943 325.056 221.364 327.008ZM228.179 301.14C225.576 301.14 223.4 298.846 224.685 296.582V296.582C225.53 295.072 226.697 293.875 228.186 292.99C229.695 292.084 231.426 291.631 233.378 291.631C235.249 291.631 236.889 292.044 238.298 292.869C239.727 293.674 240.843 294.791 241.648 296.219V296.219C243.037 298.685 240.562 301.14 237.733 301.14H228.179ZM288.857 293.865C289.966 295.21 291.452 296.502 293.191 296.395L295.505 296.252C298.977 296.039 301.675 292.778 299.84 289.822C298.874 288.266 297.598 286.907 296.011 285.745C292.65 283.27 288.042 282.033 282.186 282.033C278.222 282.033 274.761 282.616 271.803 283.783C268.865 284.951 266.581 286.611 264.951 288.764C263.341 290.917 262.536 293.483 262.536 296.461C262.536 299.922 263.633 302.77 265.826 305.003C268.04 307.237 271.41 308.806 275.938 309.712L283.967 311.312C285.98 311.714 287.469 312.298 288.435 313.062C289.4 313.807 289.893 314.763 289.914 315.93C289.893 317.319 289.189 318.455 287.801 319.341C286.432 320.206 284.621 320.639 282.367 320.639C280.073 320.639 278.192 320.156 276.723 319.19C276.701 319.175 276.679 319.16 276.656 319.145C274.21 317.461 271.752 315.019 268.787 315.175L267.839 315.224C264.323 315.409 261.6 318.712 263.47 321.695C264.52 323.37 265.919 324.829 267.668 326.072C271.31 328.628 276.2 329.906 282.337 329.906C286.362 329.906 289.914 329.272 292.992 328.004C296.091 326.716 298.526 324.925 300.297 322.631C302.088 320.337 302.984 317.671 302.984 314.632C302.984 311.292 301.877 308.595 299.663 306.543C297.45 304.49 294.089 303.001 289.582 302.075L281.19 300.385C279.037 299.922 277.518 299.308 276.632 298.544C275.747 297.779 275.304 296.843 275.304 295.737C275.304 294.348 275.988 293.241 277.357 292.416C278.725 291.571 280.405 291.148 282.398 291.148C283.887 291.148 285.165 291.4 286.231 291.903C287.318 292.386 288.193 293.04 288.857 293.865V293.865ZM324.722 313.386C324.218 313.962 323.939 314.702 323.939 315.468V323C323.939 326.314 321.253 329 317.939 329H317.081C313.767 329 311.081 326.314 311.081 323V273.182C311.081 269.868 313.767 267.182 317.081 267.182H317.939C321.253 267.182 323.939 269.868 323.939 273.182V299.76C323.939 300.022 324.151 300.234 324.413 300.234V300.234C324.553 300.234 324.685 300.172 324.776 300.066L337.807 284.624C338.871 283.363 340.436 282.636 342.085 282.636V282.636C346.865 282.636 349.445 288.242 346.336 291.873L340.048 299.217C338.28 301.283 338.121 304.279 339.662 306.519L348.657 319.6C351.394 323.581 348.544 329 343.713 329H343.245C341.252 329 339.389 328.01 338.274 326.359L329.72 313.699C328.559 311.981 326.088 311.826 324.722 313.386V313.386Z" fill="#FEFEFE"/>
</g>
<defs>
<filter id="filter0_dii_5_212" x="0.799999" y="0.799999" width="499.4" height="499.4" filterUnits="userSpaceOnUse" color-interpolation-filters="sRGB">
<feFlood flood-opacity="0" result="BackgroundImageFix"/>
<feColorMatrix in="SourceAlpha" type="matrix" values="0 0 0 0 0 0 0 0 0 0 0 0 0 0 0 0 0 0 127 0" result="hardAlpha"/>
<feMorphology radius="11" operator="dilate" in="SourceAlpha" result="effect1_dropShadow_5_212"/>
<feOffset dy="4"/>
<feGaussianBlur stdDeviation="10.1"/>
<feComposite in2="hardAlpha" operator="out"/>
<feColorMatrix type="matrix" values="0 0 0 0 0 0 0 0 0 0 0 0 0 0 0 0 0 0 0.25 0"/>
<feBlend mode="normal" in2="BackgroundImageFix" result="effect1_dropShadow_5_212"/>
<feBlend mode="normal" in="SourceGraphic" in2="effect1_dropShadow_5_212" result="shape"/>
<feColorMatrix in="SourceAlpha" type="matrix" values="0 0 0 0 0 0 0 0 0 0 0 0 0 0 0 0 0 0 127 0" result="hardAlpha"/>
<feOffset dx="4" dy="4"/>
<feGaussianBlur stdDeviation="19.85"/>
<feComposite in2="hardAlpha" operator="arithmetic" k2="-1" k3="1"/>
<feColorMatrix type="matrix" values="0 0 0 0 0 0 0 0 0 0 0 0 0 0 0 0 0 0 0.25 0"/>
<feBlend mode="normal" in2="shape" result="effect2_innerShadow_5_212"/>
<feColorMatrix in="SourceAlpha" type="matrix" values="0 0 0 0 0 0 0 0 0 0 0 0 0 0 0 0 0 0 127 0" result="hardAlpha"/>
<feMorphology radius="11" operator="erode" in="SourceAlpha" result="effect3_innerShadow_5_212"/>
<feOffset dy="4"/>
<feGaussianBlur stdDeviation="19.85"/>
<feComposite in2="hardAlpha" operator="arithmetic" k2="-1" k3="1"/>
<feColorMatrix type="matrix" values="0 0 0 0 0 0 0 0 0 0 0 0 0 0 0 0 0 0 0.25 0"/>
<feBlend mode="normal" in2="effect2_innerShadow_5_212" result="effect3_innerShadow_5_212"/>
</filter>
<filter id="filter1_di_5_212" x="27.6" y="23.6" width="445.8" height="445.8" filterUnits="userSpaceOnUse" color-interpolation-filters="sRGB">
<feFlood flood-opacity="0" result="BackgroundImageFix"/>
<feColorMatrix in="SourceAlpha" type="matrix" values="0 0 0 0 0 0 0 0 0 0 0 0 0 0 0 0 0 0 127 0" result="hardAlpha"/>
<feOffset/>
<feGaussianBlur stdDeviation="39.2"/>
<feComposite in2="hardAlpha" operator="out"/>
<feColorMatrix type="matrix" values="0 0 0 0 0 0 0 0 0 0 0 0 0 0 0 0 0 0 0.25 0"/>
<feBlend mode="normal" in2="BackgroundImageFix" result="effect1_dropShadow_5_212"/>
<feBlend mode="normal" in="SourceGraphic" in2="effect1_dropShadow_5_212" result="shape"/>
<feColorMatrix in="SourceAlpha" type="matrix" values="0 0 0 0 0 0 0 0 0 0 0 0 0 0 0 0 0 0 127 0" result="hardAlpha"/>
<feOffset dx="4" dy="4"/>
<feGaussianBlur stdDeviation="26.5"/>
<feComposite in2="hardAlpha" operator="arithmetic" k2="-1" k3="1"/>
<feColorMatrix type="matrix" values="0 0 0 0 0 0 0 0 0 0 0 0 0 0 0 0 0 0 0.25 0"/>
<feBlend mode="normal" in2="shape" result="effect2_innerShadow_5_212"/>
</filter>
<radialGradient id="paint0_radial_5_212" cx="0" cy="0" r="1" gradientUnits="userSpaceOnUse" gradientTransform="translate(250.5 246.5) rotate(87.3998) scale(551.067)">
<stop stop-color="#610000"/>
<stop offset="1" stop-color="#9B0000"/>
</radialGradient>
</defs>
</svg>
