<svg width="1280" height="832" viewBox="0 0 1280 832" fill="none" xmlns="http://www.w3.org/2000/svg">
<g clip-path="url(#clip0_5_235)">
<rect width="1280" height="832" fill="url(#paint0_linear_5_235)"/>
<g style="mix-blend-mode:luminosity">
<g style="mix-blend-mode:saturation">
<path fill-rule="evenodd" clip-rule="evenodd" d="M1006.09 483.254C1042.53 454.307 1080.68 425.447 1132.9 433.33C1193.11 442.422 1255.82 474.212 1303.56 528.167C1357.31 588.907 1409.92 668.601 1402.06 737.515C1394.45 804.142 1325.22 822.051 1268 839.68C1226.48 852.475 1179.03 837.984 1131.02 821.026C1086.04 805.138 1040.79 787.236 1005.72 747.031C966.367 701.912 931.962 645.812 932.037 592.886C932.111 539.843 971.106 511.045 1006.09 483.254Z" fill="url(#paint1_linear_5_235)"/>
</g>
<g style="mix-blend-mode:saturation">
<path fill-rule="evenodd" clip-rule="evenodd" d="M1067.91 359.048C1128.46 360.508 1190.99 390.956 1221.74 445.041C1248.92 492.85 1219.93 550.535 1207.48 604.51C1199.04 641.081 1180.19 669.679 1162.37 702.431C1131.76 758.687 1129.3 849.984 1067.91 861.025C1007.97 871.808 974.345 790.572 933.798 743.545C896.874 700.72 851.796 661.709 846.744 604.51C841.31 542.992 866.087 482.592 906.763 437.448C948.871 390.716 1006.24 357.561 1067.91 359.048Z" fill="url(#paint2_linear_5_235)"/>
</g>
<g style="mix-blend-mode:saturation">
<path fill-rule="evenodd" clip-rule="evenodd" d="M612.446 314.488C667.23 318.288 701.628 352.05 738.494 379.545C772.488 404.898 804.477 430.637 813.253 464.25C824.089 505.748 828.582 550.72 792.143 585.006C750.582 624.112 683.263 659.868 612.446 653.192C544.177 646.756 519.576 591.711 476.964 555.294C442.637 525.958 395.091 501.484 391.358 464.25C387.431 425.093 416.256 387.91 457.386 360.049C498.688 332.072 554.113 310.442 612.446 314.488Z" fill="url(#paint3_linear_5_235)"/>
</g>
<g style="mix-blend-mode:saturation">
<path fill-rule="evenodd" clip-rule="evenodd" d="M903.951 273.031C968.952 274.206 1032.35 307.885 1067.48 359.062C1098.1 403.671 1064.5 459.138 1068.02 512.049C1072.02 572.361 1126.1 635.741 1089.15 685.308C1051.13 736.324 970.002 739.229 903.951 732.161C844.895 725.842 795.973 691.539 756.769 649.741C720.507 611.078 701.446 563.353 697.505 512.049C693.187 455.838 696.117 396.87 733.978 353.036C775.417 305.058 838.029 271.84 903.951 273.031Z" fill="url(#paint4_linear_5_235)"/>
</g>
<g style="mix-blend-mode:saturation">
<path fill-rule="evenodd" clip-rule="evenodd" d="M734.433 207.056C798.712 209.145 835.498 277.884 879.869 325.852C922.486 371.925 980.99 412.095 982.941 475.712C984.921 540.307 937.024 593.348 889.357 635.35C845.829 673.705 791.37 688.301 734.433 694.687C667.679 702.175 588.294 724.135 541.661 674.349C495.177 624.721 522.082 544.28 529.328 475.712C535.436 417.909 544.632 361.786 579.521 316.087C619.715 263.44 669.458 204.943 734.433 207.056Z" fill="url(#paint5_linear_5_235)"/>
</g>
<g style="mix-blend-mode:saturation">
<path fill-rule="evenodd" clip-rule="evenodd" d="M1043.09 140.254C1079.53 111.307 1117.68 82.4472 1169.9 90.3302C1230.11 99.4218 1292.82 131.212 1340.56 185.167C1394.31 245.907 1446.92 325.601 1439.06 394.515C1431.45 461.142 1362.22 479.051 1305 496.68C1263.48 509.475 1216.03 494.984 1168.02 478.026C1123.04 462.138 1077.79 444.236 1042.72 404.031C1003.37 358.912 968.962 302.812 969.037 249.886C969.111 196.843 1008.11 168.045 1043.09 140.254Z" fill="url(#paint6_linear_5_235)"/>
</g>
<g style="mix-blend-mode:saturation">
<path fill-rule="evenodd" clip-rule="evenodd" d="M1104.91 16.0481C1165.46 17.5076 1227.99 47.9558 1258.74 102.041C1285.92 149.85 1256.93 207.535 1244.48 261.51C1236.04 298.081 1217.19 326.679 1199.37 359.431C1168.76 415.687 1166.3 506.984 1104.91 518.025C1044.97 528.808 1011.35 447.572 970.798 400.545C933.874 357.72 888.796 318.709 883.744 261.51C878.31 199.992 903.087 139.592 943.763 94.4481C985.871 47.716 1043.24 14.5614 1104.91 16.0481Z" fill="url(#paint7_linear_5_235)"/>
</g>
<g style="mix-blend-mode:saturation">
<path fill-rule="evenodd" clip-rule="evenodd" d="M649.446 -28.512C704.23 -24.7124 738.628 9.04989 775.494 36.545C809.488 61.8976 841.477 87.6369 850.253 121.25C861.089 162.748 865.582 207.72 829.143 242.006C787.582 281.112 720.263 316.868 649.446 310.192C581.177 303.756 556.576 248.711 513.964 212.294C479.637 182.958 432.091 158.484 428.358 121.25C424.431 82.0931 453.256 44.9096 494.386 17.0485C535.688 -10.9284 591.113 -32.5577 649.446 -28.512Z" fill="url(#paint8_linear_5_235)"/>
</g>
<g style="mix-blend-mode:saturation">
<path fill-rule="evenodd" clip-rule="evenodd" d="M940.951 -69.969C1005.95 -68.7945 1069.35 -35.1152 1104.48 16.0623C1135.1 60.6706 1101.5 116.138 1105.02 169.049C1109.02 229.361 1163.1 292.741 1126.15 342.308C1088.13 393.324 1007 396.229 940.951 389.161C881.895 382.842 832.973 348.539 793.769 306.741C757.507 268.078 738.446 220.353 734.505 169.049C730.187 112.838 733.117 53.8705 770.978 10.0362C812.417 -37.9415 875.029 -71.1601 940.951 -69.969Z" fill="url(#paint9_linear_5_235)"/>
</g>
<g style="mix-blend-mode:saturation">
<path fill-rule="evenodd" clip-rule="evenodd" d="M771.433 -135.944C835.712 -133.855 872.498 -65.1162 916.869 -17.148C959.486 28.9252 1017.99 69.0949 1019.94 132.712C1021.92 197.307 974.024 250.348 926.357 292.35C882.829 330.705 828.37 345.301 771.433 351.687C704.679 359.175 625.294 381.135 578.661 331.349C532.177 281.721 559.082 201.28 566.328 132.712C572.436 74.9092 581.632 18.7858 616.521 -26.9131C656.715 -79.5605 706.458 -138.057 771.433 -135.944Z" fill="url(#paint10_linear_5_235)"/>
</g>
<g style="mix-blend-mode:saturation">
<path fill-rule="evenodd" clip-rule="evenodd" d="M448.09 110.254C484.531 81.3067 522.683 52.4472 574.895 60.3302C635.112 69.4218 697.817 101.212 745.56 155.167C799.308 215.907 851.925 295.601 844.059 364.515C836.454 431.142 767.221 449.051 710.004 466.68C668.478 479.475 621.025 464.984 573.02 448.026C528.042 432.138 482.786 414.236 447.719 374.031C408.367 328.912 373.962 272.812 374.036 219.886C374.111 166.843 413.105 138.045 448.09 110.254Z" fill="url(#paint11_linear_5_235)"/>
</g>
<g style="mix-blend-mode:saturation">
<path fill-rule="evenodd" clip-rule="evenodd" d="M509.914 -13.9519C570.458 -12.4924 632.988 17.9558 663.74 72.0413C690.923 119.85 661.927 177.535 649.477 231.51C641.042 268.081 622.19 296.679 604.37 329.431C573.763 385.687 571.299 476.984 509.914 488.025C449.966 498.808 416.345 417.572 375.798 370.545C338.874 327.72 293.796 288.709 288.744 231.51C283.31 169.992 308.087 109.592 348.763 64.4481C390.871 17.716 448.245 -15.4386 509.914 -13.9519Z" fill="url(#paint12_linear_5_235)"/>
</g>
<g style="mix-blend-mode:saturation">
<path fill-rule="evenodd" clip-rule="evenodd" d="M54.4465 -58.512C109.23 -54.7124 143.628 -20.9501 180.494 6.54502C214.488 31.8976 246.477 57.6369 255.253 91.2496C266.089 132.748 270.582 177.72 234.143 212.006C192.582 251.112 125.263 286.868 54.4465 280.192C-13.8232 273.756 -38.4236 218.711 -81.0359 182.294C-115.363 152.958 -162.909 128.484 -166.642 91.2496C-170.569 52.0931 -141.744 14.9096 -100.614 -12.9515C-59.3124 -40.9284 -3.88718 -62.5577 54.4465 -58.512Z" fill="url(#paint13_linear_5_235)"/>
</g>
<g style="mix-blend-mode:saturation">
<path fill-rule="evenodd" clip-rule="evenodd" d="M345.951 -99.969C410.952 -98.7945 474.354 -65.1152 509.483 -13.9377C540.103 30.6706 506.502 86.1377 510.016 139.049C514.022 199.361 568.097 262.741 531.152 312.308C493.126 363.324 412.002 366.229 345.951 359.161C286.895 352.842 237.973 318.539 198.769 276.741C162.507 238.078 143.446 190.353 139.505 139.049C135.187 82.8385 138.117 23.8705 175.978 -19.9638C217.417 -67.9415 280.029 -101.16 345.951 -99.969Z" fill="url(#paint14_linear_5_235)"/>
</g>
<g style="mix-blend-mode:saturation">
<path fill-rule="evenodd" clip-rule="evenodd" d="M176.433 -165.944C240.712 -163.855 277.498 -95.1162 321.869 -47.148C364.486 -1.0748 422.99 39.0949 424.941 102.712C426.921 167.307 379.024 220.348 331.357 262.35C287.829 300.705 233.37 315.301 176.433 321.687C109.679 329.175 30.2938 351.135 -16.3386 301.349C-62.8232 251.721 -35.9182 171.28 -28.6722 102.712C-22.5638 44.9092 -13.3676 -11.2142 21.5212 -56.9131C61.7147 -109.56 111.458 -168.057 176.433 -165.944Z" fill="url(#paint15_linear_5_235)"/>
</g>
<g style="mix-blend-mode:saturation">
<path fill-rule="evenodd" clip-rule="evenodd" d="M402.09 360.254C438.531 331.307 476.683 302.447 528.895 310.33C589.112 319.422 651.817 351.212 699.56 405.167C753.308 465.907 805.925 545.601 798.059 614.515C790.454 681.142 721.221 699.051 664.004 716.68C622.478 729.475 575.025 714.984 527.02 698.026C482.042 682.138 436.786 664.236 401.719 624.031C362.367 578.912 327.962 522.812 328.036 469.886C328.111 416.843 367.105 388.045 402.09 360.254Z" fill="url(#paint16_linear_5_235)"/>
</g>
<g style="mix-blend-mode:saturation">
<path fill-rule="evenodd" clip-rule="evenodd" d="M463.914 236.048C524.458 237.508 586.988 267.956 617.74 322.041C644.923 369.85 615.927 427.535 603.477 481.51C595.042 518.081 576.19 546.679 558.37 579.431C527.763 635.687 525.299 726.984 463.914 738.025C403.966 748.808 370.345 667.572 329.798 620.545C292.874 577.72 247.796 538.709 242.744 481.51C237.31 419.992 262.087 359.592 302.763 314.448C344.871 267.716 402.245 234.561 463.914 236.048Z" fill="url(#paint17_linear_5_235)"/>
</g>
<g style="mix-blend-mode:saturation">
<path fill-rule="evenodd" clip-rule="evenodd" d="M-65.5535 199.488C-10.77 203.288 23.6278 237.05 60.4944 264.545C94.4883 289.898 126.477 315.637 135.253 349.25C146.089 390.748 150.582 435.72 114.143 470.006C72.5822 509.112 5.26294 544.868 -65.5535 538.192C-133.823 531.756 -158.424 476.711 -201.036 440.294C-235.363 410.958 -282.909 386.484 -286.642 349.25C-290.569 310.093 -261.744 272.91 -220.614 245.049C-179.312 217.072 -123.887 195.442 -65.5535 199.488Z" fill="url(#paint18_linear_5_235)"/>
</g>
<g style="mix-blend-mode:saturation">
<path fill-rule="evenodd" clip-rule="evenodd" d="M299.951 150.031C364.952 151.206 428.354 184.885 463.483 236.062C494.103 280.671 460.502 336.138 464.016 389.049C468.022 449.361 522.097 512.741 485.152 562.308C447.126 613.324 366.002 616.229 299.951 609.161C240.895 602.842 191.973 568.539 152.769 526.741C116.507 488.078 97.4461 440.353 93.5052 389.049C89.1873 332.838 92.1169 273.87 129.978 230.036C171.417 182.058 234.029 148.84 299.951 150.031Z" fill="url(#paint19_linear_5_235)"/>
</g>
<g style="mix-blend-mode:saturation">
<path fill-rule="evenodd" clip-rule="evenodd" d="M130.433 84.0556C194.712 86.1455 231.498 154.884 275.869 202.852C318.486 248.925 376.99 289.095 378.941 352.712C380.921 417.307 333.024 470.348 285.357 512.35C241.829 550.705 187.37 565.301 130.433 571.687C63.6787 579.175 -15.7062 601.135 -62.3386 551.349C-108.823 501.721 -81.9182 421.28 -74.6722 352.712C-68.5638 294.909 -59.3676 238.786 -24.4788 193.087C15.7147 140.44 65.458 81.943 130.433 84.0556Z" fill="url(#paint20_linear_5_235)"/>
</g>
<g style="mix-blend-mode:saturation">
<path fill-rule="evenodd" clip-rule="evenodd" d="M461.09 631.254C497.531 602.307 535.683 573.447 587.895 581.33C648.112 590.422 710.817 622.212 758.56 676.167C812.308 736.907 864.925 816.601 857.059 885.515C849.454 952.142 780.221 970.051 723.004 987.68C681.478 1000.48 634.025 985.984 586.02 969.026C541.042 953.138 495.786 935.236 460.719 895.031C421.367 849.912 386.962 793.812 387.036 740.886C387.111 687.843 426.105 659.045 461.09 631.254Z" fill="url(#paint21_linear_5_235)"/>
</g>
<g style="mix-blend-mode:saturation">
<path fill-rule="evenodd" clip-rule="evenodd" d="M522.914 507.048C583.458 508.508 645.988 538.956 676.74 593.041C703.923 640.85 674.927 698.535 662.477 752.51C654.042 789.081 635.19 817.679 617.37 850.431C586.763 906.687 584.299 997.984 522.914 1009.03C462.966 1019.81 429.345 938.572 388.798 891.545C351.874 848.72 306.796 809.709 301.744 752.51C296.31 690.992 321.087 630.592 361.763 585.448C403.871 538.716 461.245 505.561 522.914 507.048Z" fill="url(#paint22_linear_5_235)"/>
</g>
<g style="mix-blend-mode:saturation">
<path fill-rule="evenodd" clip-rule="evenodd" d="M67.4465 462.488C122.23 466.288 156.628 500.05 193.494 527.545C227.488 552.898 259.477 578.637 268.253 612.25C279.089 653.748 283.582 698.72 247.143 733.006C205.582 772.112 138.263 807.868 67.4465 801.192C-0.823227 794.756 -25.4236 739.711 -68.0359 703.294C-102.363 673.958 -149.909 649.484 -153.642 612.25C-157.569 573.093 -128.744 535.91 -87.614 508.049C-46.3124 480.072 9.11282 458.442 67.4465 462.488Z" fill="url(#paint23_linear_5_235)"/>
</g>
<g style="mix-blend-mode:saturation">
<path fill-rule="evenodd" clip-rule="evenodd" d="M358.951 421.031C423.952 422.206 487.354 455.885 522.483 507.062C553.103 551.671 519.502 607.138 523.016 660.049C527.022 720.361 581.097 783.741 544.152 833.308C506.126 884.324 425.002 887.229 358.951 880.161C299.895 873.842 250.973 839.539 211.769 797.741C175.507 759.078 156.446 711.353 152.505 660.049C148.187 603.838 151.117 544.87 188.978 501.036C230.417 453.058 293.029 419.84 358.951 421.031Z" fill="url(#paint24_linear_5_235)"/>
</g>
<g style="mix-blend-mode:saturation">
<path fill-rule="evenodd" clip-rule="evenodd" d="M189.433 355.056C253.712 357.145 290.498 425.884 334.869 473.852C377.486 519.925 435.99 560.095 437.941 623.712C439.921 688.307 392.024 741.348 344.357 783.35C300.829 821.705 246.37 836.301 189.433 842.687C122.679 850.175 43.2938 872.135 -3.33856 822.349C-49.8232 772.721 -22.9182 692.28 -15.6722 623.712C-9.5638 565.909 -0.367577 509.786 34.5212 464.087C74.7147 411.44 124.458 352.943 189.433 355.056Z" fill="url(#paint25_linear_5_235)"/>
</g>
</g>
</g>
<defs>
<linearGradient id="paint0_linear_5_235" x1="0" y1="0" x2="1280" y2="832" gradientUnits="userSpaceOnUse">
<stop stop-color="#FF0000"/>
<stop offset="0.125" stop-color="#F67D0E"/>
<stop offset="0.25" stop-color="#EED919"/>
<stop offset="0.375" stop-color="#91E428"/>
<stop offset="0.5" stop-color="#36DBB4"/>
<stop offset="0.625" stop-color="#44B8D2"/>
<stop offset="0.75" stop-color="#5173C9"/>
<stop offset="0.875" stop-color="#835DC1"/>
<stop offset="1" stop-color="#B26AB8"/>
</linearGradient>
<linearGradient id="paint1_linear_5_235" x1="1029" y1="465.643" x2="1306.13" y2="842.77" gradientUnits="userSpaceOnUse">
<stop stop-color="#C4C4C4" stop-opacity="0"/>
<stop offset="0.62" stop-color="#86FF5B"/>
<stop offset="1" stop-color="#5B7FFF"/>
</linearGradient>
<linearGradient id="paint2_linear_5_235" x1="1039.5" y1="359" x2="1039.5" y2="862" gradientUnits="userSpaceOnUse">
<stop stop-color="#C4C4C4" stop-opacity="0"/>
<stop offset="0.62" stop-color="#86FF5B"/>
<stop offset="1" stop-color="#5B7FFF"/>
</linearGradient>
<linearGradient id="paint3_linear_5_235" x1="606" y1="314" x2="606" y2="654" gradientUnits="userSpaceOnUse">
<stop stop-color="#C4C4C4" stop-opacity="0"/>
<stop offset="0.62" stop-color="#86FF5B"/>
<stop offset="1" stop-color="#5B7FFF"/>
</linearGradient>
<linearGradient id="paint4_linear_5_235" x1="899" y1="273" x2="899" y2="735" gradientUnits="userSpaceOnUse">
<stop stop-color="#C4C4C4" stop-opacity="0"/>
<stop offset="0.62" stop-color="#86FF5B"/>
<stop offset="1" stop-color="#5B7FFF"/>
</linearGradient>
<linearGradient id="paint5_linear_5_235" x1="749" y1="207" x2="749" y2="706" gradientUnits="userSpaceOnUse">
<stop stop-color="#C4C4C4" stop-opacity="0"/>
<stop offset="0.62" stop-color="#86FF5B"/>
<stop offset="1" stop-color="#5B7FFF"/>
</linearGradient>
<linearGradient id="paint6_linear_5_235" x1="1066" y1="122.643" x2="1343.13" y2="499.77" gradientUnits="userSpaceOnUse">
<stop stop-color="#C4C4C4" stop-opacity="0"/>
<stop offset="0.62" stop-color="#86FF5B"/>
<stop offset="1" stop-color="#5B7FFF"/>
</linearGradient>
<linearGradient id="paint7_linear_5_235" x1="1076.5" y1="16" x2="1076.5" y2="519" gradientUnits="userSpaceOnUse">
<stop stop-color="#C4C4C4" stop-opacity="0"/>
<stop offset="0.62" stop-color="#86FF5B"/>
<stop offset="1" stop-color="#5B7FFF"/>
</linearGradient>
<linearGradient id="paint8_linear_5_235" x1="643" y1="-29" x2="643" y2="311" gradientUnits="userSpaceOnUse">
<stop stop-color="#C4C4C4" stop-opacity="0"/>
<stop offset="0.62" stop-color="#86FF5B"/>
<stop offset="1" stop-color="#5B7FFF"/>
</linearGradient>
<linearGradient id="paint9_linear_5_235" x1="936" y1="-70" x2="936" y2="392" gradientUnits="userSpaceOnUse">
<stop stop-color="#C4C4C4" stop-opacity="0"/>
<stop offset="0.62" stop-color="#86FF5B"/>
<stop offset="1" stop-color="#5B7FFF"/>
</linearGradient>
<linearGradient id="paint10_linear_5_235" x1="786" y1="-136" x2="786" y2="363" gradientUnits="userSpaceOnUse">
<stop stop-color="#C4C4C4" stop-opacity="0"/>
<stop offset="0.62" stop-color="#86FF5B"/>
<stop offset="1" stop-color="#5B7FFF"/>
</linearGradient>
<linearGradient id="paint11_linear_5_235" x1="470.999" y1="92.6427" x2="748.126" y2="469.77" gradientUnits="userSpaceOnUse">
<stop stop-color="#C4C4C4" stop-opacity="0"/>
<stop offset="0.62" stop-color="#86FF5B"/>
<stop offset="1" stop-color="#5B7FFF"/>
</linearGradient>
<linearGradient id="paint12_linear_5_235" x1="481.5" y1="-14" x2="481.5" y2="489" gradientUnits="userSpaceOnUse">
<stop stop-color="#C4C4C4" stop-opacity="0"/>
<stop offset="0.62" stop-color="#86FF5B"/>
<stop offset="1" stop-color="#5B7FFF"/>
</linearGradient>
<linearGradient id="paint13_linear_5_235" x1="48" y1="-59" x2="48" y2="281" gradientUnits="userSpaceOnUse">
<stop stop-color="#C4C4C4" stop-opacity="0"/>
<stop offset="0.62" stop-color="#86FF5B"/>
<stop offset="1" stop-color="#5B7FFF"/>
</linearGradient>
<linearGradient id="paint14_linear_5_235" x1="341" y1="-100" x2="341" y2="362" gradientUnits="userSpaceOnUse">
<stop stop-color="#C4C4C4" stop-opacity="0"/>
<stop offset="0.62" stop-color="#86FF5B"/>
<stop offset="1" stop-color="#5B7FFF"/>
</linearGradient>
<linearGradient id="paint15_linear_5_235" x1="191" y1="-166" x2="191" y2="333" gradientUnits="userSpaceOnUse">
<stop stop-color="#C4C4C4" stop-opacity="0"/>
<stop offset="0.62" stop-color="#86FF5B"/>
<stop offset="1" stop-color="#5B7FFF"/>
</linearGradient>
<linearGradient id="paint16_linear_5_235" x1="424.999" y1="342.643" x2="702.126" y2="719.77" gradientUnits="userSpaceOnUse">
<stop stop-color="#C4C4C4" stop-opacity="0"/>
<stop offset="0.62" stop-color="#86FF5B"/>
<stop offset="1" stop-color="#5B7FFF"/>
</linearGradient>
<linearGradient id="paint17_linear_5_235" x1="435.5" y1="236" x2="435.5" y2="739" gradientUnits="userSpaceOnUse">
<stop stop-color="#C4C4C4" stop-opacity="0"/>
<stop offset="0.62" stop-color="#86FF5B"/>
<stop offset="1" stop-color="#5B7FFF"/>
</linearGradient>
<linearGradient id="paint18_linear_5_235" x1="-72" y1="199" x2="-72" y2="539" gradientUnits="userSpaceOnUse">
<stop stop-color="#C4C4C4" stop-opacity="0"/>
<stop offset="0.62" stop-color="#86FF5B"/>
<stop offset="1" stop-color="#5B7FFF"/>
</linearGradient>
<linearGradient id="paint19_linear_5_235" x1="295" y1="150" x2="295" y2="612" gradientUnits="userSpaceOnUse">
<stop stop-color="#C4C4C4" stop-opacity="0"/>
<stop offset="0.62" stop-color="#86FF5B"/>
<stop offset="1" stop-color="#5B7FFF"/>
</linearGradient>
<linearGradient id="paint20_linear_5_235" x1="145" y1="84" x2="145" y2="583" gradientUnits="userSpaceOnUse">
<stop stop-color="#C4C4C4" stop-opacity="0"/>
<stop offset="0.62" stop-color="#86FF5B"/>
<stop offset="1" stop-color="#5B7FFF"/>
</linearGradient>
<linearGradient id="paint21_linear_5_235" x1="483.999" y1="613.643" x2="761.126" y2="990.77" gradientUnits="userSpaceOnUse">
<stop stop-color="#C4C4C4" stop-opacity="0"/>
<stop offset="0.62" stop-color="#86FF5B"/>
<stop offset="1" stop-color="#5B7FFF"/>
</linearGradient>
<linearGradient id="paint22_linear_5_235" x1="494.5" y1="507" x2="494.5" y2="1010" gradientUnits="userSpaceOnUse">
<stop stop-color="#C4C4C4" stop-opacity="0"/>
<stop offset="0.62" stop-color="#86FF5B"/>
<stop offset="1" stop-color="#5B7FFF"/>
</linearGradient>
<linearGradient id="paint23_linear_5_235" x1="61" y1="462" x2="61" y2="802" gradientUnits="userSpaceOnUse">
<stop stop-color="#C4C4C4" stop-opacity="0"/>
<stop offset="0.62" stop-color="#86FF5B"/>
<stop offset="1" stop-color="#5B7FFF"/>
</linearGradient>
<linearGradient id="paint24_linear_5_235" x1="354" y1="421" x2="354" y2="883" gradientUnits="userSpaceOnUse">
<stop stop-color="#C4C4C4" stop-opacity="0"/>
<stop offset="0.62" stop-color="#86FF5B"/>
<stop offset="1" stop-color="#5B7FFF"/>
</linearGradient>
<linearGradient id="paint25_linear_5_235" x1="204" y1="355" x2="204" y2="854" gradientUnits="userSpaceOnUse">
<stop stop-color="#C4C4C4" stop-opacity="0"/>
<stop offset="0.62" stop-color="#86FF5B"/>
<stop offset="1" stop-color="#5B7FFF"/>
</linearGradient>
<clipPath id="clip0_5_235">
<rect width="1280" height="832" fill="white"/>
</clipPath>
</defs>
</svg>
