<svg width="18" height="18" viewBox="0 0 18 18" fill="none" xmlns="http://www.w3.org/2000/svg">
<path fill-rule="evenodd" clip-rule="evenodd" d="M0.795731 2.25029C0.800978 3.83472 0.929629 4.87147 1.23096 5.75451L1.65865 7.00821L0.734371 9.18856C-0.052593 11.0449 -0.138589 11.398 0.155667 11.5646C1.82791 12.5116 4.66075 14.86 5.28986 15.8208C6.28965 17.3478 7.40007 18 9 18C10.5999 18 11.7103 17.3478 12.7101 15.8208C13.3392 14.86 16.1721 12.5116 17.8443 11.5646C18.1386 11.398 18.0526 11.0449 17.2656 9.18856L16.3413 7.00821L16.769 5.75451C17.0704 4.87147 17.199 3.83472 17.2043 2.25029L17.2118 0H16.0902C14.7715 0 13.266 0.604231 12.3075 1.51819C11.6401 2.15451 11.5589 2.17089 9 2.18151C6.41351 2.19236 6.36743 2.18336 5.70456 1.5302C4.77868 0.617618 3.24672 0 1.9098 0H0.788204L0.795731 2.25029ZM2.2531 1.92579C2.14748 2.20367 2.50287 5.04734 2.66232 5.20128C2.6979 5.23567 3.26087 4.766 3.91325 4.15761C5.02389 3.12178 5.07431 3.02808 4.70341 2.68834C4.34482 2.36015 2.81515 1.61559 2.49922 1.61559C2.42851 1.61559 2.31765 1.75523 2.2531 1.92579ZM14.3605 2.04603C12.8007 2.76335 12.7802 2.97477 14.1486 4.22223L15.3625 5.32891L15.5001 4.56843C15.738 3.25519 15.7385 1.78384 15.501 1.70353C15.3755 1.66106 14.8623 1.81523 14.3605 2.04603ZM7.6065 3.77471C5.45957 4.37064 3.56607 6.33404 2.41505 9.15787L1.74739 10.7963L3.67397 12.1206C5.57066 13.4242 5.77003 13.6231 6.79262 15.2327C7.11996 15.7479 7.61266 16.1428 8.15304 16.323C9.34626 16.7211 10.5304 16.2983 11.2074 15.2327C12.23 13.6231 12.4293 13.4242 14.3238 12.1222L16.2481 10.7995L15.6931 9.41752C13.9262 5.0178 10.8534 2.87345 7.6065 3.77471ZM4.8941 9.43159C4.8941 9.66839 5.10692 10.1358 5.36696 10.4702C5.73421 10.9429 6.03942 11.0783 6.7356 11.0783C7.7915 11.0783 7.92927 10.6006 7.1585 9.60931C6.79125 9.13663 6.48605 9.00115 5.78987 9.00115C5.06769 9.00115 4.8941 9.0847 4.8941 9.43159ZM10.8415 9.60931C10.0707 10.6006 10.2085 11.0783 11.2644 11.0783C11.9606 11.0783 12.2658 10.9429 12.633 10.4702C13.4038 9.47891 13.266 9.00115 12.2101 9.00115C11.514 9.00115 11.2087 9.13663 10.8415 9.60931ZM7.63137 13.586C7.63137 14.1932 8.49543 15.2327 9 15.2327C9.50457 15.2327 10.3686 14.1932 10.3686 13.586C10.3686 13.2137 10.1836 13.1555 9 13.1555C7.81636 13.1555 7.63137 13.2137 7.63137 13.586Z" fill="white"/>
</svg>
